<svg xmlns="http://www.w3.org/2000/svg" viewBox="0 0 20 380.55"><defs><style>.cls-1{fill:#7ac943;}</style></defs><title>Asset 6</title><g id="Layer_2" data-name="Layer 2"><g id="Layer_1-2" data-name="Layer 1"><rect class="cls-1" width="19" height="7.95"/><rect class="cls-1" x="2.38" y="12.84" width="16.63" height="7.95"/><rect class="cls-1" x="5.38" y="25.69" width="13.62" height="7.95"/><rect class="cls-1" x="8.07" y="38.53" width="10.93" height="7.95"/><rect class="cls-1" x="10.61" y="51.38" width="8.39" height="7.95"/><rect class="cls-1" y="64.22" width="19" height="7.95"/><rect class="cls-1" x="2.38" y="77.07" width="16.63" height="7.95"/><rect class="cls-1" x="5.38" y="89.91" width="13.62" height="7.95"/><rect class="cls-1" x="8.07" y="102.76" width="10.93" height="7.95"/><rect class="cls-1" x="10.61" y="115.6" width="8.39" height="7.95"/><rect class="cls-1" y="128.45" width="19" height="7.95"/><rect class="cls-1" x="2.38" y="141.29" width="16.63" height="7.95"/><rect class="cls-1" x="5.38" y="154.14" width="13.62" height="7.95"/><rect class="cls-1" x="8.07" y="166.98" width="10.93" height="7.95"/><rect class="cls-1" x="10.61" y="179.83" width="8.39" height="7.95"/><rect class="cls-1" y="192.67" width="19" height="7.95"/><rect class="cls-1" x="2.38" y="205.51" width="16.63" height="7.95"/><rect class="cls-1" x="5.38" y="218.36" width="13.62" height="7.95"/><rect class="cls-1" x="8.07" y="231.2" width="10.93" height="7.95"/><rect class="cls-1" x="10.61" y="244.05" width="8.39" height="7.95"/><rect class="cls-1" x="1" y="257" width="19" height="7.95"/><rect class="cls-1" x="3.38" y="269.84" width="16.63" height="7.95"/><rect class="cls-1" x="6.38" y="282.69" width="13.62" height="7.95"/><rect class="cls-1" x="9.07" y="295.53" width="10.93" height="7.95"/><rect class="cls-1" x="11.61" y="308.38" width="8.39" height="7.95"/><rect class="cls-1" x="1" y="321.22" width="19" height="7.95"/><rect class="cls-1" x="3.38" y="334.07" width="16.63" height="7.95"/><rect class="cls-1" x="6.38" y="346.91" width="13.62" height="7.95"/><rect class="cls-1" x="9.07" y="359.76" width="10.93" height="7.95"/><rect class="cls-1" x="11.61" y="372.6" width="8.39" height="7.95"/></g></g></svg>