<svg xmlns="http://www.w3.org/2000/svg" viewBox="0 0 89 412"><defs><style>.cls-1{fill:#7ac943;}</style></defs><title>Asset 2</title><g id="Layer_2" data-name="Layer 2"><g id="Layer_1-2" data-name="Layer 1"><rect class="cls-1" width="89" height="13"/><rect class="cls-1" x="11.13" y="21" width="77.88" height="13"/><rect class="cls-1" x="25.22" y="42" width="63.78" height="13"/><rect class="cls-1" x="37.82" y="63" width="51.18" height="13"/><rect class="cls-1" x="49.69" y="84" width="39.31" height="13"/><rect class="cls-1" y="105" width="89" height="13"/><rect class="cls-1" x="11.13" y="126" width="77.88" height="13"/><rect class="cls-1" x="25.22" y="147" width="63.78" height="13"/><rect class="cls-1" x="37.82" y="168" width="51.18" height="13"/><rect class="cls-1" x="49.69" y="189" width="39.31" height="13"/><rect class="cls-1" y="210" width="89" height="13"/><rect class="cls-1" x="11.13" y="231" width="77.88" height="13"/><rect class="cls-1" x="25.22" y="252" width="63.78" height="13"/><rect class="cls-1" x="37.82" y="273" width="51.18" height="13"/><rect class="cls-1" x="49.69" y="294" width="39.31" height="13"/><rect class="cls-1" y="315" width="89" height="13"/><rect class="cls-1" x="11.13" y="336" width="77.88" height="13"/><rect class="cls-1" x="25.22" y="357" width="63.78" height="13"/><rect class="cls-1" x="37.82" y="378" width="51.18" height="13"/><rect class="cls-1" x="49.69" y="399" width="39.31" height="13"/></g></g></svg>