<svg xmlns="http://www.w3.org/2000/svg" viewBox="0 0 6.8 1011"><defs><style>.cls-1{fill:#7ac943;}</style></defs><title>Asset 9</title><g id="Layer_2" data-name="Layer 2"><g id="Layer_1-2" data-name="Layer 1"><rect class="cls-1" x="1.36" width="5.17" height="5.45"/><rect class="cls-1" x="2.01" y="8.81" width="4.52" height="5.45"/><rect class="cls-1" x="2.82" y="17.62" width="3.7" height="5.45"/><rect class="cls-1" x="3.55" y="26.43" width="2.97" height="5.45"/><rect class="cls-1" x="4.24" y="35.24" width="2.28" height="5.45"/><rect class="cls-1" x="1.36" y="44.05" width="5.17" height="5.45"/><rect class="cls-1" x="2.01" y="52.86" width="4.52" height="5.45"/><rect class="cls-1" x="2.82" y="61.67" width="3.7" height="5.45"/><rect class="cls-1" x="3.55" y="70.48" width="2.97" height="5.45"/><rect class="cls-1" x="4.24" y="79.28" width="2.28" height="5.45"/><rect class="cls-1" x="1.36" y="88.09" width="5.17" height="5.45"/><rect class="cls-1" x="2.01" y="96.9" width="4.52" height="5.45"/><rect class="cls-1" x="2.82" y="105.71" width="3.7" height="5.45"/><rect class="cls-1" x="3.55" y="114.52" width="2.97" height="5.45"/><rect class="cls-1" x="4.24" y="123.33" width="2.28" height="5.45"/><rect class="cls-1" x="1.36" y="132.14" width="5.17" height="5.45"/><rect class="cls-1" x="2.01" y="140.95" width="4.52" height="5.45"/><rect class="cls-1" x="2.82" y="149.76" width="3.7" height="5.45"/><rect class="cls-1" x="3.55" y="158.57" width="2.97" height="5.45"/><rect class="cls-1" x="4.24" y="167.38" width="2.28" height="5.45"/><rect class="cls-1" x="1.63" y="176.26" width="5.17" height="5.45"/><rect class="cls-1" x="2.28" y="185.07" width="4.52" height="5.45"/><rect class="cls-1" x="3.09" y="193.88" width="3.7" height="5.45"/><rect class="cls-1" x="3.83" y="202.69" width="2.97" height="5.45"/><rect class="cls-1" x="4.52" y="211.5" width="2.28" height="5.45"/><rect class="cls-1" x="1.63" y="220.31" width="5.17" height="5.45"/><rect class="cls-1" x="2.28" y="229.12" width="4.52" height="5.45"/><rect class="cls-1" x="3.09" y="237.93" width="3.7" height="5.45"/><rect class="cls-1" x="3.83" y="246.74" width="2.97" height="5.45"/><rect class="cls-1" x="4.52" y="255.55" width="2.28" height="5.45"/><rect class="cls-1" x="1.36" y="264" width="5.17" height="5.45"/><rect class="cls-1" x="2.01" y="272.81" width="4.52" height="5.45"/><rect class="cls-1" x="2.82" y="281.62" width="3.7" height="5.45"/><rect class="cls-1" x="3.55" y="290.43" width="2.97" height="5.45"/><rect class="cls-1" x="4.24" y="299.24" width="2.28" height="5.45"/><rect class="cls-1" x="1.36" y="308.05" width="5.17" height="5.45"/><rect class="cls-1" x="2.01" y="316.86" width="4.52" height="5.45"/><rect class="cls-1" x="2.82" y="325.67" width="3.7" height="5.45"/><rect class="cls-1" x="3.55" y="334.48" width="2.97" height="5.45"/><rect class="cls-1" x="4.24" y="343.28" width="2.28" height="5.45"/><rect class="cls-1" x="1.36" y="352.09" width="5.17" height="5.45"/><rect class="cls-1" x="2.01" y="360.9" width="4.52" height="5.45"/><rect class="cls-1" x="2.82" y="369.71" width="3.7" height="5.45"/><rect class="cls-1" x="3.55" y="378.52" width="2.97" height="5.45"/><rect class="cls-1" x="4.24" y="387.33" width="2.28" height="5.45"/><rect class="cls-1" x="1.36" y="396.14" width="5.17" height="5.45"/><rect class="cls-1" x="2.01" y="404.95" width="4.52" height="5.45"/><rect class="cls-1" x="2.82" y="413.76" width="3.7" height="5.45"/><rect class="cls-1" x="3.55" y="422.57" width="2.97" height="5.45"/><rect class="cls-1" x="4.24" y="431.38" width="2.28" height="5.45"/><rect class="cls-1" x="1.63" y="440.26" width="5.17" height="5.45"/><rect class="cls-1" x="2.28" y="449.07" width="4.52" height="5.45"/><rect class="cls-1" x="3.09" y="457.88" width="3.7" height="5.45"/><rect class="cls-1" x="3.83" y="466.69" width="2.97" height="5.45"/><rect class="cls-1" x="4.52" y="475.5" width="2.28" height="5.45"/><rect class="cls-1" x="1.63" y="484.31" width="5.17" height="5.45"/><rect class="cls-1" x="2.28" y="493.12" width="4.52" height="5.45"/><rect class="cls-1" x="3.09" y="501.93" width="3.7" height="5.45"/><rect class="cls-1" x="3.83" y="510.74" width="2.97" height="5.45"/><rect class="cls-1" x="4.52" y="519.55" width="2.28" height="5.45"/><rect class="cls-1" y="530.05" width="5.17" height="5.45"/><rect class="cls-1" x="0.65" y="538.86" width="4.52" height="5.45"/><rect class="cls-1" x="1.46" y="547.67" width="3.7" height="5.45"/><rect class="cls-1" x="2.2" y="556.48" width="2.97" height="5.45"/><rect class="cls-1" x="2.88" y="565.28" width="2.28" height="5.45"/><rect class="cls-1" x="1.36" y="574.09" width="5.17" height="5.45"/><rect class="cls-1" x="2.01" y="582.9" width="4.52" height="5.45"/><rect class="cls-1" x="2.82" y="591.71" width="3.7" height="5.45"/><rect class="cls-1" x="3.55" y="600.52" width="2.97" height="5.45"/><rect class="cls-1" x="4.24" y="609.33" width="2.28" height="5.45"/><rect class="cls-1" x="1.36" y="618.14" width="5.17" height="5.45"/><rect class="cls-1" x="2.01" y="626.95" width="4.52" height="5.45"/><rect class="cls-1" x="2.82" y="635.76" width="3.7" height="5.45"/><rect class="cls-1" x="3.55" y="644.57" width="2.97" height="5.45"/><rect class="cls-1" x="4.24" y="653.38" width="2.28" height="5.45"/><rect class="cls-1" x="1.63" y="662.26" width="5.17" height="5.45"/><rect class="cls-1" x="2.28" y="671.07" width="4.52" height="5.45"/><rect class="cls-1" x="3.09" y="679.88" width="3.7" height="5.45"/><rect class="cls-1" x="3.83" y="688.69" width="2.97" height="5.45"/><rect class="cls-1" x="4.52" y="697.5" width="2.28" height="5.45"/><rect class="cls-1" x="1.63" y="706.31" width="5.17" height="5.45"/><rect class="cls-1" x="2.28" y="715.12" width="4.52" height="5.45"/><rect class="cls-1" x="3.09" y="723.93" width="3.7" height="5.45"/><rect class="cls-1" x="3.83" y="732.74" width="2.97" height="5.45"/><rect class="cls-1" x="4.52" y="741.55" width="2.28" height="5.45"/><rect class="cls-1" x="1.36" y="750" width="5.17" height="5.45"/><rect class="cls-1" x="2.01" y="758.81" width="4.52" height="5.45"/><rect class="cls-1" x="2.82" y="767.62" width="3.7" height="5.45"/><rect class="cls-1" x="3.55" y="776.43" width="2.97" height="5.45"/><rect class="cls-1" x="4.24" y="785.24" width="2.28" height="5.45"/><rect class="cls-1" x="1.36" y="794.05" width="5.17" height="5.45"/><rect class="cls-1" x="2.01" y="802.86" width="4.52" height="5.45"/><rect class="cls-1" x="2.82" y="811.67" width="3.7" height="5.45"/><rect class="cls-1" x="3.55" y="820.48" width="2.97" height="5.45"/><rect class="cls-1" x="4.24" y="829.28" width="2.28" height="5.45"/><rect class="cls-1" x="1.36" y="838.09" width="5.17" height="5.45"/><rect class="cls-1" x="2.01" y="846.9" width="4.52" height="5.45"/><rect class="cls-1" x="2.82" y="855.71" width="3.7" height="5.45"/><rect class="cls-1" x="3.55" y="864.52" width="2.97" height="5.45"/><rect class="cls-1" x="4.24" y="873.33" width="2.28" height="5.45"/><rect class="cls-1" x="1.36" y="882.14" width="5.17" height="5.45"/><rect class="cls-1" x="2.01" y="890.95" width="4.52" height="5.45"/><rect class="cls-1" x="2.82" y="899.76" width="3.7" height="5.45"/><rect class="cls-1" x="3.55" y="908.57" width="2.97" height="5.45"/><rect class="cls-1" x="4.24" y="917.38" width="2.28" height="5.45"/><rect class="cls-1" x="1.63" y="926.26" width="5.17" height="5.45"/><rect class="cls-1" x="2.28" y="935.07" width="4.52" height="5.45"/><rect class="cls-1" x="3.09" y="943.88" width="3.7" height="5.45"/><rect class="cls-1" x="3.83" y="952.69" width="2.97" height="5.45"/><rect class="cls-1" x="4.52" y="961.5" width="2.28" height="5.45"/><rect class="cls-1" x="1.63" y="970.31" width="5.17" height="5.45"/><rect class="cls-1" x="2.28" y="979.12" width="4.52" height="5.45"/><rect class="cls-1" x="3.09" y="987.93" width="3.7" height="5.45"/><rect class="cls-1" x="3.83" y="996.74" width="2.97" height="5.45"/><rect class="cls-1" x="4.52" y="1005.55" width="2.28" height="5.45"/></g></g></svg>