<svg xmlns="http://www.w3.org/2000/svg" viewBox="0 0 9 261"><defs><style>.cls-1{fill:#7ac943;}</style></defs><title>Asset 8</title><g id="Layer_2" data-name="Layer 2"><g id="Layer_1-2" data-name="Layer 1"><rect class="cls-1" width="8.55" height="5.45"/><rect class="cls-1" x="1.07" y="8.81" width="7.48" height="5.45"/><rect class="cls-1" x="2.42" y="17.62" width="6.13" height="5.45"/><rect class="cls-1" x="3.63" y="26.43" width="4.92" height="5.45"/><rect class="cls-1" x="4.77" y="35.24" width="3.78" height="5.45"/><rect class="cls-1" y="44.05" width="8.55" height="5.45"/><rect class="cls-1" x="1.07" y="52.86" width="7.48" height="5.45"/><rect class="cls-1" x="2.42" y="61.67" width="6.13" height="5.45"/><rect class="cls-1" x="3.63" y="70.48" width="4.92" height="5.45"/><rect class="cls-1" x="4.77" y="79.28" width="3.78" height="5.45"/><rect class="cls-1" y="88.09" width="8.55" height="5.45"/><rect class="cls-1" x="1.07" y="96.9" width="7.48" height="5.45"/><rect class="cls-1" x="2.42" y="105.71" width="6.13" height="5.45"/><rect class="cls-1" x="3.63" y="114.52" width="4.92" height="5.45"/><rect class="cls-1" x="4.77" y="123.33" width="3.78" height="5.45"/><rect class="cls-1" y="132.14" width="8.55" height="5.45"/><rect class="cls-1" x="1.07" y="140.95" width="7.48" height="5.45"/><rect class="cls-1" x="2.42" y="149.76" width="6.13" height="5.45"/><rect class="cls-1" x="3.63" y="158.57" width="4.92" height="5.45"/><rect class="cls-1" x="4.77" y="167.38" width="3.78" height="5.45"/><rect class="cls-1" x="0.45" y="176.26" width="8.55" height="5.45"/><rect class="cls-1" x="1.52" y="185.07" width="7.48" height="5.45"/><rect class="cls-1" x="2.87" y="193.88" width="6.13" height="5.45"/><rect class="cls-1" x="4.08" y="202.69" width="4.92" height="5.45"/><rect class="cls-1" x="5.22" y="211.5" width="3.78" height="5.45"/><rect class="cls-1" x="0.45" y="220.31" width="8.55" height="5.45"/><rect class="cls-1" x="1.52" y="229.12" width="7.48" height="5.45"/><rect class="cls-1" x="2.87" y="237.93" width="6.13" height="5.45"/><rect class="cls-1" x="4.08" y="246.74" width="4.92" height="5.45"/><rect class="cls-1" x="5.22" y="255.55" width="3.78" height="5.45"/></g></g></svg>