<svg xmlns="http://www.w3.org/2000/svg" viewBox="0 0 18.68 1011"><defs><style>.cls-1{fill:#7ac943;}</style></defs><title>Asset 10</title><g id="Layer_2" data-name="Layer 2"><g id="Layer_1-2" data-name="Layer 1"><rect class="cls-1" x="0.74" width="14.2" height="5.45"/><rect class="cls-1" x="2.51" y="8.81" width="12.42" height="5.45"/><rect class="cls-1" x="4.76" y="17.62" width="10.18" height="5.45"/><rect class="cls-1" x="6.77" y="26.43" width="8.16" height="5.45"/><rect class="cls-1" x="8.66" y="35.24" width="6.27" height="5.45"/><rect class="cls-1" x="0.74" y="44.05" width="14.2" height="5.45"/><rect class="cls-1" x="2.51" y="52.86" width="12.42" height="5.45"/><rect class="cls-1" x="4.76" y="61.67" width="10.18" height="5.45"/><rect class="cls-1" x="6.77" y="70.48" width="8.16" height="5.45"/><rect class="cls-1" x="8.66" y="79.28" width="6.27" height="5.45"/><rect class="cls-1" x="0.74" y="88.09" width="14.2" height="5.45"/><rect class="cls-1" x="2.51" y="96.9" width="12.42" height="5.45"/><rect class="cls-1" x="4.76" y="105.71" width="10.18" height="5.45"/><rect class="cls-1" x="6.77" y="114.52" width="8.16" height="5.45"/><rect class="cls-1" x="8.66" y="123.33" width="6.27" height="5.45"/><rect class="cls-1" x="0.74" y="132.14" width="14.2" height="5.45"/><rect class="cls-1" x="2.51" y="140.95" width="12.42" height="5.45"/><rect class="cls-1" x="4.76" y="149.76" width="10.18" height="5.45"/><rect class="cls-1" x="6.77" y="158.57" width="8.16" height="5.45"/><rect class="cls-1" x="8.66" y="167.38" width="6.27" height="5.45"/><rect class="cls-1" x="1.48" y="176.26" width="14.2" height="5.45"/><rect class="cls-1" x="3.26" y="185.07" width="12.42" height="5.45"/><rect class="cls-1" x="5.51" y="193.88" width="10.18" height="5.45"/><rect class="cls-1" x="7.52" y="202.69" width="8.16" height="5.45"/><rect class="cls-1" x="9.41" y="211.5" width="6.27" height="5.45"/><rect class="cls-1" x="1.48" y="220.31" width="14.2" height="5.45"/><rect class="cls-1" x="3.26" y="229.12" width="12.42" height="5.45"/><rect class="cls-1" x="5.51" y="237.93" width="10.18" height="5.45"/><rect class="cls-1" x="7.52" y="246.74" width="8.16" height="5.45"/><rect class="cls-1" x="9.41" y="255.55" width="6.27" height="5.45"/><rect class="cls-1" x="0.74" y="264" width="14.2" height="5.45"/><rect class="cls-1" x="2.51" y="272.81" width="12.42" height="5.45"/><rect class="cls-1" x="4.76" y="281.62" width="10.18" height="5.45"/><rect class="cls-1" x="6.77" y="290.43" width="8.16" height="5.45"/><rect class="cls-1" x="8.66" y="299.24" width="6.27" height="5.45"/><rect class="cls-1" x="0.74" y="308.05" width="14.2" height="5.45"/><rect class="cls-1" x="2.51" y="316.86" width="12.42" height="5.45"/><rect class="cls-1" x="4.76" y="325.67" width="10.18" height="5.45"/><rect class="cls-1" x="6.77" y="334.48" width="8.16" height="5.45"/><rect class="cls-1" x="8.66" y="343.28" width="6.27" height="5.45"/><rect class="cls-1" x="0.74" y="352.09" width="14.2" height="5.45"/><rect class="cls-1" x="2.51" y="360.9" width="12.42" height="5.45"/><rect class="cls-1" x="4.76" y="369.71" width="10.18" height="5.45"/><rect class="cls-1" x="6.77" y="378.52" width="8.16" height="5.45"/><rect class="cls-1" x="8.66" y="387.33" width="6.27" height="5.45"/><rect class="cls-1" x="0.74" y="396.14" width="14.2" height="5.45"/><rect class="cls-1" x="2.51" y="404.95" width="12.42" height="5.45"/><rect class="cls-1" x="4.76" y="413.76" width="10.18" height="5.45"/><rect class="cls-1" x="6.77" y="422.57" width="8.16" height="5.45"/><rect class="cls-1" x="8.66" y="431.38" width="6.27" height="5.45"/><rect class="cls-1" x="1.48" y="440.26" width="14.2" height="5.45"/><rect class="cls-1" x="3.26" y="449.07" width="12.42" height="5.45"/><rect class="cls-1" x="5.51" y="457.88" width="10.18" height="5.45"/><rect class="cls-1" x="7.52" y="466.69" width="8.16" height="5.45"/><rect class="cls-1" x="9.41" y="475.5" width="6.27" height="5.45"/><rect class="cls-1" x="1.48" y="484.31" width="14.2" height="5.45"/><rect class="cls-1" x="3.26" y="493.12" width="12.42" height="5.45"/><rect class="cls-1" x="5.51" y="501.93" width="10.18" height="5.45"/><rect class="cls-1" x="7.52" y="510.74" width="8.16" height="5.45"/><rect class="cls-1" x="9.41" y="519.55" width="6.27" height="5.45"/><rect class="cls-1" y="530.05" width="14.2" height="5.45"/><rect class="cls-1" x="1.77" y="538.86" width="12.42" height="5.45"/><rect class="cls-1" x="4.02" y="547.67" width="10.18" height="5.45"/><rect class="cls-1" x="6.03" y="556.48" width="8.16" height="5.45"/><rect class="cls-1" x="7.93" y="565.28" width="6.27" height="5.45"/><rect class="cls-1" x="3.74" y="574.09" width="14.2" height="5.45"/><rect class="cls-1" x="5.51" y="582.9" width="12.42" height="5.45"/><rect class="cls-1" x="7.76" y="591.71" width="10.18" height="5.45"/><rect class="cls-1" x="9.77" y="600.52" width="8.16" height="5.45"/><rect class="cls-1" x="11.66" y="609.33" width="6.27" height="5.45"/><rect class="cls-1" x="3.74" y="618.14" width="14.2" height="5.45"/><rect class="cls-1" x="5.51" y="626.95" width="12.42" height="5.45"/><rect class="cls-1" x="7.76" y="635.76" width="10.18" height="5.45"/><rect class="cls-1" x="9.77" y="644.57" width="8.16" height="5.45"/><rect class="cls-1" x="11.66" y="653.38" width="6.27" height="5.45"/><rect class="cls-1" x="4.48" y="662.26" width="14.2" height="5.45"/><rect class="cls-1" x="6.26" y="671.07" width="12.42" height="5.45"/><rect class="cls-1" x="8.51" y="679.88" width="10.18" height="5.45"/><rect class="cls-1" x="10.52" y="688.69" width="8.16" height="5.45"/><rect class="cls-1" x="12.41" y="697.5" width="6.27" height="5.45"/><rect class="cls-1" x="4.48" y="706.31" width="14.2" height="5.45"/><rect class="cls-1" x="6.26" y="715.12" width="12.42" height="5.45"/><rect class="cls-1" x="8.51" y="723.93" width="10.18" height="5.45"/><rect class="cls-1" x="10.52" y="732.74" width="8.16" height="5.45"/><rect class="cls-1" x="12.41" y="741.55" width="6.27" height="5.45"/><rect class="cls-1" x="3.74" y="750" width="14.2" height="5.45"/><rect class="cls-1" x="5.51" y="758.81" width="12.42" height="5.45"/><rect class="cls-1" x="7.76" y="767.62" width="10.18" height="5.45"/><rect class="cls-1" x="9.77" y="776.43" width="8.16" height="5.45"/><rect class="cls-1" x="11.66" y="785.24" width="6.27" height="5.45"/><rect class="cls-1" x="3.74" y="794.05" width="14.2" height="5.45"/><rect class="cls-1" x="5.51" y="802.86" width="12.42" height="5.45"/><rect class="cls-1" x="7.76" y="811.67" width="10.18" height="5.45"/><rect class="cls-1" x="9.77" y="820.48" width="8.16" height="5.45"/><rect class="cls-1" x="11.66" y="829.28" width="6.27" height="5.45"/><rect class="cls-1" x="3.74" y="838.09" width="14.2" height="5.45"/><rect class="cls-1" x="5.51" y="846.9" width="12.42" height="5.45"/><rect class="cls-1" x="7.76" y="855.71" width="10.18" height="5.45"/><rect class="cls-1" x="9.77" y="864.52" width="8.16" height="5.45"/><rect class="cls-1" x="11.66" y="873.33" width="6.27" height="5.45"/><rect class="cls-1" x="3.74" y="882.14" width="14.2" height="5.45"/><rect class="cls-1" x="5.51" y="890.95" width="12.42" height="5.45"/><rect class="cls-1" x="7.76" y="899.76" width="10.18" height="5.45"/><rect class="cls-1" x="9.77" y="908.57" width="8.16" height="5.45"/><rect class="cls-1" x="11.66" y="917.38" width="6.27" height="5.45"/><rect class="cls-1" x="4.48" y="926.26" width="14.2" height="5.45"/><rect class="cls-1" x="6.26" y="935.07" width="12.42" height="5.45"/><rect class="cls-1" x="8.51" y="943.88" width="10.18" height="5.45"/><rect class="cls-1" x="10.52" y="952.69" width="8.16" height="5.45"/><rect class="cls-1" x="12.41" y="961.5" width="6.27" height="5.45"/><rect class="cls-1" x="4.48" y="970.31" width="14.2" height="5.45"/><rect class="cls-1" x="6.26" y="979.12" width="12.42" height="5.45"/><rect class="cls-1" x="8.51" y="987.93" width="10.18" height="5.45"/><rect class="cls-1" x="10.52" y="996.74" width="8.16" height="5.45"/><rect class="cls-1" x="12.41" y="1005.55" width="6.27" height="5.45"/></g></g></svg>