<svg xmlns="http://www.w3.org/2000/svg" viewBox="0 0 38 412"><defs><style>.cls-1{fill:#7ac943;}</style></defs><title>Asset 3</title><g id="Layer_2" data-name="Layer 2"><g id="Layer_1-2" data-name="Layer 1"><rect class="cls-1" width="38" height="13"/><rect class="cls-1" x="4.75" y="21" width="33.25" height="13"/><rect class="cls-1" x="10.77" y="42" width="27.23" height="13"/><rect class="cls-1" x="16.15" y="63" width="21.85" height="13"/><rect class="cls-1" x="21.22" y="84" width="16.78" height="13"/><rect class="cls-1" y="105" width="38" height="13"/><rect class="cls-1" x="4.75" y="126" width="33.25" height="13"/><rect class="cls-1" x="10.77" y="147" width="27.23" height="13"/><rect class="cls-1" x="16.15" y="168" width="21.85" height="13"/><rect class="cls-1" x="21.22" y="189" width="16.78" height="13"/><rect class="cls-1" y="210" width="38" height="13"/><rect class="cls-1" x="4.75" y="231" width="33.25" height="13"/><rect class="cls-1" x="10.77" y="252" width="27.23" height="13"/><rect class="cls-1" x="16.15" y="273" width="21.85" height="13"/><rect class="cls-1" x="21.22" y="294" width="16.78" height="13"/><rect class="cls-1" y="315" width="38" height="13"/><rect class="cls-1" x="4.75" y="336" width="33.25" height="13"/><rect class="cls-1" x="10.77" y="357" width="27.23" height="13"/><rect class="cls-1" x="16.15" y="378" width="21.85" height="13"/><rect class="cls-1" x="21.22" y="399" width="16.78" height="13"/></g></g></svg>